<svg xmlns="http://www.w3.org/2000/svg" viewBox="0 0 48 48" xmlns:xlink="http://www.w3.org/1999/xlink" xml:space="preserve" width="100%" height="100%"><g fill="none" transform="scale(2)"><path stroke="#000" stroke-width="2" d="M14 7c0 2.21 1.644 4 4 4s4-1.79 4-4-1.644-4-4-4-4 1.79-4 4Zm-4 0c0 2.21-1.644 4-4 4S2 9.21 2 7s1.644-4 4-4 4 1.79 4 4Z"></path><path stroke="#000" stroke-linecap="round" stroke-width="2" d="M14 7v12a2 2 0 0 0 2 2v0a2 2 0 0 0 2-2v-8"></path><path stroke="#000" stroke-width="2" d="M14 17h4M6 17h4"></path><path stroke="#000" stroke-linecap="round" stroke-width="2" d="M10 7v12a2 2 0 0 1-2 2v0a2 2 0 0 1-2-2v-8"></path><path stroke="#000" stroke-width="2" d="M20 4a5.41 5.41 0 0 0 0 6M4 4a5.41 5.41 0 0 1 0 6"></path></g></svg>